<?xml version="1.0" standalone="no"?><!DOCTYPE svg PUBLIC "-//W3C//DTD SVG 1.1//EN" "http://www.w3.org/Graphics/SVG/1.1/DTD/svg11.dtd"><svg t="1655965464029" class="icon" viewBox="0 0 1024 1024" version="1.1" xmlns="http://www.w3.org/2000/svg" p-id="4415" xmlns:xlink="http://www.w3.org/1999/xlink" width="200" height="200"><defs><style type="text/css"></style></defs><path d="M712.569 928c-18.166 0-36.578-1.929-54.73-5.731l-18.215-3.029-24.542-71.583c-1.45-4.354-7.106-8.172-12.104-8.172a8.58 8.58 0 0 0-1.378 0.109l-76.335 12.055-11.908-11.917c-9.412-9.407-17.578-20.921-24.27-34.218-9.753-17.113-15.897-31.238-19.28-44.33l-6.278-15.698 50.907-57.019c3.574-4.707 3.048-11.89 0.763-14.177l-0.422-0.421-49.289-59.559 6.335-15.828c9.038-26.959 23.576-52.239 44.438-77.275l0.369-0.443 7.983-7.978c-24.88 9.884-51.573 15.411-79.119 16.258l-0.39-0.044h-1.838c-175.47 0-318.226 142.807-318.226 318.28 0 17.983-13.055 31.063-31.043 31.063-17.985 0-31.038-13.041-31.038-31.027 0-42.318 6.929-83.91 20.593-123.627 13.204-38.377 32.427-74.271 57.135-106.694 24.436-32.064 53.611-59.919 86.714-82.79 25.674-17.739 53.22-32.133 82.183-42.967-27.834-18.355-51.415-42.19-69.098-70.031-23.54-37.062-35.982-80.407-35.982-125.352 0-62.06 24.33-120.566 68.506-164.743 44.177-44.177 102.684-68.506 164.745-68.506 62.058 0 120.564 24.329 164.738 68.505 44.177 44.177 68.505 102.684 68.505 164.744 0 61.135-23.213 118.85-65.362 162.513-20.932 21.683-45.461 38.788-72.323 50.755l68.288 11.377c0.439 0.074 0.904 0.11 1.386 0.11 5.273 0 11.466-4.051 14.355-9.316l26.079-70.22 15.987-3.193c17.326-3.84 35.287-5.787 53.391-5.787 18.016 0 36.35 1.927 54.499 5.73l18.143 3.019 24.616 69.758c1.571 4.713 7.737 9.963 14.071 9.963 0.521 0 1.039-0.036 1.542-0.108l74.324-10.042 12.192 12.192 0.368 0.44c9.682 11.617 17.597 21.644 23.635 35.43 4.445 7.615 8.68 17.844 12.778 27.746a873.485 873.485 0 0 0 4.099 9.791l0.12 0.287 6.47 16.172-48.832 59.001c-3.592 4.567-3.611 12.475-0.057 17.076l48.944 57.098-6.437 16.089c-11.176 31.217-25.614 56.693-42.922 75.722l-0.199 0.221-12.142 12.149-74.411-12.063a8.652 8.652 0 0 0-1.44-0.119c-4.998 0-10.653 3.817-12.104 8.17l-0.103 0.295-26.319 72.896-16.136 3.221c-18.216 3.831-36.695 5.772-54.929 5.772z m-22.625-62.657c7.979 0.997 16.179 1.5 24.463 1.5 8.356 0 16.624-0.512 24.669-1.525L753 826.634c9.727-28.938 39.117-49.929 69.951-49.929 4.148 0 8.269 0.396 12.252 1.175l37.88 6.062c5.368-7.954 11.055-17.401 15.317-27.845l-24.664-29.29c-22.814-27.374-23.622-69.215-1.883-95.303l25.891-30.458c-2.477-4.821-5.165-9.804-8.637-15.592l-0.25-0.415-0.216-0.435c-2.322-4.646-4.664-8.469-7.441-12.46l-40.4 4.66a73.673 73.673 0 0 1-9.031 0.556c-32.564 0.001-62.348-21.094-72.463-51.312l-12.163-34.963c-7.886-1-15.813-1.507-23.654-1.507-7.907 0-15.904 0.515-23.855 1.532l-13.847 36.924c-9.754 28.892-39.642 49.836-71.172 49.838-4.299 0-8.595-0.392-12.772-1.164l-38.438-6.147c-6.155 8.574-11.191 18.68-16.059 28.583l25.94 30.522c22.253 26.704 22.253 68.542 0 95.247l-26.271 30.914c2.533 5.602 5.309 10.793 9.017 16.969l0.254 0.422 0.221 0.441c2.14 4.288 4.132 7.575 6.429 10.516l43.033-6.376 0.144-0.018a73.448 73.448 0 0 1 9.088-0.564c32.601 0 62.415 21.138 72.502 51.402l12.241 36.724zM437.753 124.688c-94.383 0-171.168 76.785-171.168 171.167s76.786 171.167 171.168 171.167S608.92 390.237 608.92 295.855s-76.784-171.167-171.167-171.167z m275.735 650.739c-25.607 0-49.595-9.886-67.544-27.835s-27.834-41.937-27.834-67.543c0-25.607 9.885-49.596 27.834-67.545 17.949-17.95 41.937-27.835 67.544-27.835s49.594 9.885 67.546 27.835c17.949 17.949 27.834 41.938 27.834 67.545 0 25.44-10.154 49.453-28.593 67.611-17.917 17.647-42.261 27.767-66.787 27.767z m0-128.678c-18.671 0-33.298 14.627-33.298 33.3 0 18.671 14.627 33.297 33.298 33.297s33.3-14.626 33.3-33.297c0-18.673-14.629-33.3-33.3-33.3z" p-id="4416"></path></svg>