<svg 
 xmlns="http://www.w3.org/2000/svg"
 xmlns:xlink="http://www.w3.org/1999/xlink"
 width="24px" height="24px">
<path fill-rule="evenodd"  fill="rgb(89, 89, 89)"
 d="M12.000,24.000 C5.372,24.000 0.000,18.627 0.000,12.000 C0.000,5.372 5.372,-0.000 12.000,-0.000 C18.627,-0.000 24.000,5.372 24.000,12.000 C24.000,18.627 18.627,24.000 12.000,24.000 ZM12.000,1.846 C6.392,1.846 1.846,6.392 1.846,12.000 C1.846,17.608 6.392,22.154 12.000,22.154 C17.608,22.154 22.154,17.608 22.154,12.000 C22.154,6.392 17.608,1.846 12.000,1.846 ZM15.083,11.243 C14.831,11.489 14.375,11.908 13.717,12.498 C13.564,12.635 13.420,12.780 13.283,12.932 C13.186,13.036 13.103,13.150 13.034,13.274 C12.983,13.374 12.943,13.479 12.914,13.588 C12.914,13.692 12.871,13.877 12.785,14.141 C12.741,14.619 12.340,14.983 11.861,14.981 C11.600,14.987 11.347,14.887 11.160,14.704 C10.955,14.486 10.851,14.191 10.874,13.892 C10.848,13.137 11.124,12.403 11.640,11.852 C11.932,11.529 12.240,11.221 12.563,10.929 C12.907,10.627 13.157,10.400 13.311,10.246 C13.463,10.095 13.593,9.924 13.698,9.738 C13.798,9.554 13.849,9.348 13.846,9.138 C13.853,8.722 13.678,8.324 13.366,8.049 C13.027,7.746 12.583,7.587 12.129,7.606 C11.652,7.565 11.180,7.725 10.828,8.049 C10.501,8.431 10.258,8.878 10.117,9.360 C9.932,9.975 9.588,10.283 9.083,10.283 C8.790,10.292 8.507,10.174 8.308,9.960 C8.095,9.778 7.976,9.510 7.985,9.231 C7.996,8.677 8.166,8.139 8.474,7.680 C8.840,7.160 9.333,6.740 9.905,6.461 C10.581,6.105 11.337,5.927 12.101,5.944 C12.812,5.931 13.516,6.079 14.160,6.378 C14.717,6.635 15.193,7.041 15.535,7.551 C15.855,8.025 16.025,8.585 16.024,9.157 C16.025,9.562 15.927,9.961 15.738,10.320 C15.569,10.659 15.347,10.971 15.083,11.243 ZM11.908,15.692 C12.227,15.687 12.536,15.812 12.762,16.038 C12.988,16.264 13.113,16.572 13.108,16.892 C13.117,17.222 12.982,17.539 12.738,17.760 C12.510,17.971 12.209,18.086 11.898,18.083 C11.583,18.089 11.277,17.977 11.040,17.769 C10.779,17.536 10.642,17.195 10.671,16.846 C10.664,16.526 10.791,16.218 11.021,15.997 C11.263,15.778 11.583,15.668 11.908,15.692 Z"/>
</svg>
