<?xml version="1.0" standalone="no"?><!DOCTYPE svg PUBLIC "-//W3C//DTD SVG 1.1//EN" "http://www.w3.org/Graphics/SVG/1.1/DTD/svg11.dtd"><svg t="1655965089305" class="icon" viewBox="0 0 1024 1024" version="1.1" xmlns="http://www.w3.org/2000/svg" p-id="2182" xmlns:xlink="http://www.w3.org/1999/xlink" width="200" height="200"><defs><style type="text/css"></style></defs><path d="M769.6 975.8c-87.6 0-159-71.4-159-159s71.4-159 159-159 159 71.4 159 159-71.2 159-159 159z m0-278c-65.6 0-119 53.4-119 119s53.4 119 119 119 119-53.4 119-119-53.4-119-119-119z" fill="#262435" p-id="2183"></path><path d="M820.4 752.8H802c-1.4 0-2.8 0.8-3.4 2L778 792.6c-3 5.4-5.2 10-7 13.4-5.2-10.4-14.2-27.2-27.4-51.4-0.6-1.2-2-2-3.4-2h-19.4c-1.4 0-2.6 0.8-3.4 2s-0.6 2.6 0 3.8l32.6 56h-22.8c-2.2 0-3.8 1.8-3.8 3.8v13.6c0 2.2 1.8 3.8 3.8 3.8h30.6v11.2h-30.6c-2.2 0-3.8 1.8-3.8 3.8v13.8c0 2.2 1.8 3.8 3.8 3.8h30.6V892c0 2.2 1.8 3.8 3.8 3.8h17.2c2.2 0 3.8-1.8 3.8-3.8v-23.6H812c2.2 0 3.8-1.8 3.8-3.8v-13.8c0-2.2-1.8-3.8-3.8-3.8h-29.4V836H812c2.2 0 3.8-1.8 3.8-3.8v-13.6c0-2.2-1.8-3.8-3.8-3.8h-21.8l32.8-56c0.6-1.2 0.8-2.6 0-3.8 0-1.4-1.2-2.2-2.6-2.2z" fill="#262435" p-id="2184"></path><path d="M580.8 957.4H295c-75 0-136.2-61-136.2-136.2V194.6c0-75 61-136.2 136.2-136.2h462.4c75 0 136.2 61 136.2 136.2v421.8c0 11-9 20-20 20s-20-9-20-20V194.6c0-53-43.2-96.2-96.2-96.2H295c-53 0-96.2 43.2-96.2 96.2v626.6c0 53 43.2 96.2 96.2 96.2h285.8c11 0 20 9 20 20s-9 20-20 20z" fill="#262435" p-id="2185"></path><path d="M766.4 299H280.8c-11 0-20-9-20-20s9-20 20-20h485.6c11 0 20 9 20 20s-9 20-20 20zM766.4 525.2H280.8c-11 0-20-9-20-20s9-20 20-20h485.6c11 0 20 9 20 20s-9 20-20 20zM556.4 751.2H280.8c-11 0-20-9-20-20s9-20 20-20h275.6c11 0 20 9 20 20s-8.8 20-20 20z" fill="#262435" p-id="2186"></path></svg>