<?xml version="1.0" standalone="no"?><!DOCTYPE svg PUBLIC "-//W3C//DTD SVG 1.1//EN" "http://www.w3.org/Graphics/SVG/1.1/DTD/svg11.dtd"><svg t="1655965261674" class="icon" viewBox="0 0 1024 1024" version="1.1" xmlns="http://www.w3.org/2000/svg" p-id="3561" xmlns:xlink="http://www.w3.org/1999/xlink" width="200" height="200"><defs><style type="text/css"></style></defs><path d="M260.125 588.88l546.277 0 0 50.089-546.277 0 0-50.089zM258.793 781.037l546.272 0 1.266 53.712-546.206 0-1.331-53.712zM553.801 392.334l252.6 0 0 50.914-252.6 0 0-50.914zM608.075 195.662l198.326 0 0 51.863-198.326 0 0-51.863zM851.983 992l-662.768 0c-43.677 0-79.163-37.266-79.163-82.977l0-794.046c0-45.712 35.486-82.977 79.163-82.977l662.768 0c43.677 0 79.162 37.266 79.162 82.977l0 793.985c0 45.773-35.55 83.038-79.162 83.038l0 0 0 0 0 0zM178.994 82.215c-8.952 0-16.444 9.398-16.444 20.444l0 818.68c0 11.113 7.555 20.444 16.444 20.444l683.271 0c8.952 0 16.442-9.398 16.442-20.444l0-818.68c0-11.11-7.555-20.444-16.442-20.444l-683.271 0zM473.112 340.084c7.173 12.253 10.857 26.603 10.857 43.044 0 25.141-7.492 46.149-22.474 62.915-15.047 16.758-36.63 26.722-65.007 29.706l0 43.107-36.058 0 0-42.915c-47.169-4.888-76.434-32.314-87.67-82.271l55.8-14.604c5.143 31.426 22.221 47.169 51.298 47.169 13.582 0 23.615-3.366 30.026-10.096 6.412-6.788 9.651-14.853 9.651-24.377 0-9.904-3.239-17.33-9.651-22.347-6.348-5.08-20.632-11.487-42.66-19.297-19.808-6.918-35.362-13.714-46.534-20.505-11.11-6.667-20.188-16.062-27.17-28.184-6.983-12.127-10.412-26.284-10.412-42.282 0-21.074 6.282-40.122 18.666-56.943 12.504-16.887 31.99-27.235 58.719-30.981l0-33.265 36.058 0 0 33.265c40.313 4.827 66.47 27.615 78.405 68.434l-49.837 20.441c-9.712-27.992-24.63-42.024-45.01-42.024-10.157 0-18.347 3.113-24.44 9.397-6.219 6.282-9.332 13.84-9.332 22.727 0 9.076 2.981 15.998 8.952 20.885 5.966 4.824 18.661 10.857 38.214 17.967 21.396 7.81 38.283 15.3 50.407 22.155 12.19 6.982 21.839 16.63 29.202 28.882l0 0 0 0 0 0z" p-id="3562"></path></svg>