<?xml version="1.0" standalone="no"?><!DOCTYPE svg PUBLIC "-//W3C//DTD SVG 1.1//EN" "http://www.w3.org/Graphics/SVG/1.1/DTD/svg11.dtd"><svg t="1655965183297" class="icon" viewBox="0 0 1024 1024" version="1.1" xmlns="http://www.w3.org/2000/svg" p-id="2516" xmlns:xlink="http://www.w3.org/1999/xlink" width="200" height="200"><defs><style type="text/css"></style></defs><path d="M146.212571 1024a146.285714 146.285714 0 0 1-146.285714-146.285714V219.428571a146.285714 146.285714 0 0 1 146.285714-146.285714h731.428572a146.285714 146.285714 0 0 1 146.285714 146.285714v658.285715a146.285714 146.285714 0 0 1-146.285714 146.285714z m-73.142857-146.285714a73.142857 73.142857 0 0 0 73.142857 73.142857h731.428572a73.142857 73.142857 0 0 0 73.142857-73.142857V402.285714h-877.714286z m0-658.285715v109.714286h877.714286V219.428571a73.142857 73.142857 0 0 0-73.142857-73.142857h-731.428572a73.142857 73.142857 0 0 0-73.142857 73.142857z m357.010286 581.12L251.611429 681.618286a14.628571 14.628571 0 0 1 0-24.356572L430.08 538.331429a14.628571 14.628571 0 0 1 22.747429 12.214857v82.358857h362.569142a36.571429 36.571429 0 0 1 36.571429 36.571428 36.571429 36.571429 0 0 1-36.571429 36.571429H452.827429v82.358857a14.628571 14.628571 0 0 1-14.628572 14.628572 14.628571 14.628571 0 0 1-8.118857-2.486858z" fill="#6A6A6A" p-id="2517"></path></svg>