<svg xmlns="http://www.w3.org/2000/svg" xmlns:xlink="http://www.w3.org/1999/xlink" width="72.291" height="41.516" viewBox="0 0 72.291 41.516"><defs><style>.a{fill:#ffb814;}.b{fill:url(#a);}.c{fill:#fff;font-size:18px;font-family:PingFang SC Bold, PingFang SC;}.d{filter:url(#b);}</style><linearGradient id="a" x1="0.5" x2="0.5" y2="1" gradientUnits="objectBoundingBox"><stop offset="0" stop-color="#ffc540"/><stop offset="1" stop-color="#ffa200"/></linearGradient><filter id="b" x="3.194" y="0" width="66.774" height="41.516" filterUnits="userSpaceOnUse"><feOffset dy="3" input="SourceAlpha"/><feGaussianBlur stdDeviation="3" result="c"/><feFlood flood-color="#5a3600" flood-opacity="0.349"/><feComposite operator="in" in2="c"/><feComposite in="SourceGraphic"/></filter></defs><g transform="translate(-543.354 -736)"><path class="a" d="M1.936,0H18.875c1.069,0,1.936,1.382,1.936,3.086,0,0,.056,2.954-3.793,9.151a12.724,12.724,0,0,1,3.793,7.821c0,1.7-.867,3.086-1.936,3.086H1.936C.867,23.143,0,21.761,0,20.057V3.086C0,1.382.867,0,1.936,0Z" transform="translate(594.834 745.857)"/><path class="a" d="M18.875,0H1.936C.867,0,0,1.382,0,3.086c0,0-.056,2.954,3.793,9.151A12.724,12.724,0,0,0,0,20.057c0,1.7.867,3.086,1.936,3.086H18.875c1.069,0,1.936-1.382,1.936-3.086V3.086C20.811,1.382,19.945,0,18.875,0Z" transform="translate(543.354 745.857)"/><g class="d" transform="matrix(1, 0, 0, 1, 543.35, 736)"><path class="b" d="M1.484,0H43.29a3.484,3.484,0,0,1,3.484,3.484L45.032,20.032a3.484,3.484,0,0,1-3.484,3.484H3.226A3.484,3.484,0,0,1-.258,20.032L-2,3.484A3.484,3.484,0,0,1,1.484,0Z" transform="translate(14.19 6)"/></g><text class="c" transform="translate(580 761)"><tspan x="-5.4" y="0">1</tspan></text></g></svg>