<svg xmlns="http://www.w3.org/2000/svg" xmlns:xlink="http://www.w3.org/1999/xlink" width="61.58" height="38.032" viewBox="0 0 61.58 38.032"><defs><style>.a{fill:#d4ac6d;}.b{fill:url(#a);}.c{fill:#fff;font-size:14px;font-family:PingFang SC Bold, PingFang SC;}.d{filter:url(#b);}</style><linearGradient id="a" x1="0.5" x2="0.5" y2="1" gradientUnits="objectBoundingBox"><stop offset="0" stop-color="#f2c681"/><stop offset="1" stop-color="#d4ac6d"/></linearGradient><filter id="b" x="1.387" y="0" width="59.548" height="38.032" filterUnits="userSpaceOnUse"><feOffset dy="3" input="SourceAlpha"/><feGaussianBlur stdDeviation="3" result="c"/><feFlood flood-color="#5a3600" flood-opacity="0.349"/><feComposite operator="in" in2="c"/><feComposite in="SourceGraphic"/></filter></defs><g transform="translate(-729.957 -738)"><path class="a" d="M1.649,0h14.43c.911,0,1.649,1.177,1.649,2.629,0,0,.048,2.516-3.231,7.8a10.839,10.839,0,0,1,3.231,6.662c0,1.452-.738,2.629-1.649,2.629H1.649C.738,19.714,0,18.537,0,17.086V2.629C0,1.177.738,0,1.649,0Z" transform="translate(773.809 747.285)"/><path class="a" d="M16.079,0H1.649C.738,0,0,1.177,0,2.629c0,0-.048,2.516,3.231,7.8A10.839,10.839,0,0,0,0,17.086c0,1.452.738,2.629,1.649,2.629h14.43c.911,0,1.649-1.177,1.649-2.629V2.629C17.728,1.177,16.99,0,16.079,0Z" transform="translate(729.957 747.285)"/><g class="d" transform="matrix(1, 0, 0, 1, 729.96, 738)"><path class="b" d="M.968,0H36.581a2.968,2.968,0,0,1,2.968,2.968l-1.484,14.1A2.968,2.968,0,0,1,35.1,20.032H2.452A2.968,2.968,0,0,1-.516,17.065L-2,2.968A2.968,2.968,0,0,1,.968,0Z" transform="translate(12.39 6)"/></g><text class="c" transform="translate(761.247 759)"><tspan x="-4.2" y="0">3</tspan></text></g></svg>